<svg xmlns="http://www.w3.org/2000/svg" viewBox="0 0 1200 900" role="img" aria-label="Moda Vista principal">
  <defs>
    <linearGradient id="bg" x1="0" x2="1" y1="0" y2="1">
      <stop offset="0%" stop-color="#4c1d95"/>
      <stop offset="100%" stop-color="#ec4899"/>
    </linearGradient>
    <linearGradient id="panel" x1="0" x2="1" y1="0" y2="1">
      <stop offset="0%" stop-color="rgba(255,255,255,.96)"/>
      <stop offset="100%" stop-color="#fce7f3"/>
    </linearGradient>
  </defs>

  <rect width="1200" height="900" fill="url(#bg)"/>
  <circle cx="1042" cy="138" r="174" fill="#f9a8d4" opacity=".34"/>
  <circle cx="114" cy="790" r="148" fill="rgba(255,255,255,.08)"/>
  <rect x="54" y="54" width="1092" height="792" rx="42" fill="rgba(255,255,255,.08)" stroke="rgba(255,255,255,.12)" stroke-width="2"/>

  <g transform="translate(0 0)">
    <rect x="72" y="72" width="632" height="756" rx="36" fill="url(#panel)"/>
    <rect x="98" y="116" width="198" height="42" rx="21" fill="#ec4899" opacity=".14"/>
    <text x="118" y="144" font-family="Segoe UI, Arial, sans-serif" font-size="24" font-weight="700" fill="#ec4899">Moda</text>
    <text x="98" y="256" font-family="Segoe UI, Arial, sans-serif" font-size="64" font-weight="800" fill="#4c1d95"><tspan x="98" y="256">Tenis Adidas</tspan><tspan x="98" y="334">Gazelle Indoor</tspan><tspan x="98" y="412">Verde</tspan></text>
    <text x="98" y="596" font-family="Segoe UI, Arial, sans-serif" font-size="30" font-weight="700" fill="#ec4899">Vista principal</text>
    <text x="98" y="648" font-family="Segoe UI, Arial, sans-serif" font-size="24" fill="#475569">Galeria local 1</text>
    <text x="98" y="704" font-family="Segoe UI, Arial, sans-serif" font-size="24" fill="#475569">Producto preparado para pruebas visuales del marketplace</text>
    <rect x="98" y="742" width="220" height="14" rx="7" fill="#f9a8d4" opacity=".7"/>
    <rect x="98" y="772" width="162" height="14" rx="7" fill="#ec4899" opacity=".3"/>
  </g>

  <g transform="translate(748 152)">
    <rect x="0" y="0" width="352" height="508" rx="42" fill="rgba(255,255,255,.12)" stroke="rgba(255,255,255,.18)" stroke-width="2"/>
    <g transform="translate(4 24)">
  <path d="M128 72 L182 30 L236 72 L280 122 L248 154 L226 126 L226 454 L138 454 L138 126 L116 154 L84 122 Z" fill="rgba(255,255,255,.24)" stroke="rgba(255,255,255,.68)" stroke-width="10" stroke-linejoin="round"/>
</g>
  </g>
</svg>